<?xml version="1.0" standalone="no"?><!DOCTYPE svg PUBLIC "-//W3C//DTD SVG 1.1//EN" "http://www.w3.org/Graphics/SVG/1.1/DTD/svg11.dtd"><svg t="1749803485860" class="icon" viewBox="0 0 1024 1024" version="1.1" xmlns="http://www.w3.org/2000/svg" p-id="953" xmlns:xlink="http://www.w3.org/1999/xlink" width="200" height="200"><path d="M636.791467 176.128a141.858133 141.858133 0 1 0 0 283.7504 141.858133 141.858133 0 0 0 0-283.7504z m-216.9856 141.858133a216.951467 216.951467 0 1 1 433.937066 0 216.951467 216.951467 0 0 1-433.937066 0z" fill="#ffffff" p-id="954"></path><path d="M227.771733 474.0096a62.122667 62.122667 0 1 0 0 124.245333 62.122667 62.122667 0 0 0 0-124.245333z m-137.216 62.122667a137.216 137.216 0 1 1 274.432 0 137.216 137.216 0 0 1-274.432 0z" fill="#d81e06" p-id="955"></path><path d="M514.594133 762.197333a17.066667 17.066667 0 0 1 26.0096 0l112.708267 132.573867a17.066667 17.066667 0 0 1-12.970667 28.125867h-225.450666a17.066667 17.066667 0 0 1-12.970667-28.125867l112.674133-132.573867zM932.420267 545.3824a37.546667 37.546667 0 0 1-23.893334 47.445333L139.1616 847.189333a37.546667 37.546667 0 0 1-23.586133-71.304533l769.4336-254.395733a37.546667 37.546667 0 0 1 47.445333 23.8592z" fill="#ffffff" p-id="956"></path></svg>